<svg width="288" height="256" fill="none" xmlns="http://www.w3.org/2000/svg"><path fill-rule="evenodd" clip-rule="evenodd" d="M176 206.222l2.852 32.012 12.8 3.544 12.851-3.561 2.852-31.995H176zm6.898 18.4l-1.072-11.857h19.669l-.363 3.924H186.13l.363 4.018h14.285l-1.081 12.048-8.018 2.225v.022l-8.055-2.247-.553-6.162h3.941l.276 3.137 4.381 1.173 4.372-1.173.458-5.099h-4.839v-.009h-8.762z" fill="#7DBCCA"/><path d="M259.555 92.444h-71.111v71.112h71.111V92.444z" fill="#7DBCCA"/><path d="M236.211 148c1.433 2.339 3.296 4.058 6.592 4.058 2.769 0 4.538-1.384 4.538-3.296 0-2.291-1.817-3.103-4.865-4.436l-1.67-.716c-4.822-2.055-8.026-4.628-8.026-10.069 0-5.012 3.819-8.827 9.786-8.827 4.249 0 7.303 1.479 9.504 5.351l-5.203 3.341c-1.146-2.055-2.382-2.864-4.301-2.864-1.957 0-3.197 1.242-3.197 2.864 0 2.004 1.241 2.816 4.108 4.057l1.671.716c5.678 2.435 8.883 4.917 8.883 10.498 0 6.016-4.726 9.312-11.073 9.312-6.206 0-10.215-2.958-12.177-6.834l5.43-3.155zm-23.605.58c1.05 1.862 2.005 3.437 4.301 3.437 2.195 0 3.58-.859 3.58-4.199v-22.722h6.682v22.812c0 6.919-4.057 10.068-9.978 10.068-5.35 0-8.449-2.769-10.024-6.103l5.439-3.293z" fill="#234A52"/><path fill-rule="evenodd" clip-rule="evenodd" d="M48.016 77.228l11.776-35.962H36.239l11.777 35.962z" fill="#7DBCCA"/><path fill-rule="evenodd" clip-rule="evenodd" d="M48.02 77.228L36.242 41.266H19.74l28.28 35.962z" fill="#D0F6FF"/><path fill-rule="evenodd" clip-rule="evenodd" d="M19.74 41.266l-3.58 10.929a2.409 2.409 0 00.886 2.705L48.02 77.228 19.74 41.266z" fill="#448A9A"/><path fill-rule="evenodd" clip-rule="evenodd" d="M19.74 41.266h16.503l-7.092-21.66c-.365-1.114-1.954-1.114-2.32 0l-7.091 21.66z" fill="#7DBCCA"/><path fill-rule="evenodd" clip-rule="evenodd" d="M48.02 77.228l11.777-35.962H76.3L48.02 77.228z" fill="#D0F6FF"/><path fill-rule="evenodd" clip-rule="evenodd" d="M76.3 41.266l3.58 10.929a2.409 2.409 0 01-.886 2.705L48.02 77.228 76.3 41.266z" fill="#448A9A"/><path fill-rule="evenodd" clip-rule="evenodd" d="M76.296 41.266H59.791l7.092-21.66c.365-1.114 1.954-1.114 2.319 0l7.093 21.66z" fill="#7DBCCA"/><path d="M189.857 46.717l-12.574-12.574a1.855 1.855 0 00-2.623 0l-2.611 2.612 3.312 3.312a2.201 2.201 0 012.789 2.808l3.192 3.192a2.204 2.204 0 012.281.524 2.207 2.207 0 11-3.602.72l-2.978-2.977v7.835a2.207 2.207 0 11-1.814-.064v-7.908a2.206 2.206 0 01-1.198-2.894l-3.265-3.266-8.623 8.621a1.856 1.856 0 000 2.624l12.575 12.574a1.855 1.855 0 002.623 0l12.516-12.516a1.855 1.855 0 000-2.623z" fill="#234A52"/><path fill-rule="evenodd" clip-rule="evenodd" d="M128 71.111l21.333 11.999v24.003L128 119.111l-21.333-11.998V83.11l21.333-12zm17.524 35.174l-16.819 9.461v-7.367l10.479-5.734 6.34 3.64zm1.152-1.036V85.467l-6.152 3.535v12.717l6.152 3.53zm-36.267 1.036l16.819 9.461v-7.367l-10.485-5.734-6.334 3.64zm-1.152-1.036V85.467l6.152 3.535v12.717l-6.152 3.53zm.722-21.065l17.249-9.702v7.12l-11.053 6.046-.088.05-6.108-3.514zm35.975 0l-17.249-9.702v7.12l11.053 6.04.088.05 6.108-3.508zm-29.065 16.861l10.341 5.657v-10.92l-10.341-5.935v11.198zm22.16.005l-10.341 5.652v-10.92l10.341-5.935v11.203zm-11.08-18.17l-10.38 5.673 10.38 5.958 10.38-5.958-10.38-5.673z" fill="#7DBCCA"/><path d="M152.827 172.953c-.017.012-2.769 1.964-2.769 4.378 0 3.921-3.004 9.465-7.82 10.369-1.743 4.416-4.837 5.716-5.438 7.521-.567 1.703-2.365 4.29-11.39 7.09-4.892 1.519-10.405 2.578-13.409 2.578-3.003 0-8.516-1.059-13.408-2.578-9.025-2.8-10.823-5.387-11.39-7.09-.6-1.8-3.697-3.109-5.439-7.521-4.816-.904-7.82-6.448-7.82-10.369 0-2.414-2.752-4.366-2.78-4.386-1.063-.691-1.441-2.014-.954-3.184 2.091-5.03 7.785-17.074 13.059-19.711 3.723-1.861 8.756-1.604 12.573-.98 7.072-2.555 25.047-2.628 32.319 0 3.817-.624 8.849-.88 12.571.98 5.257 2.628 10.993 14.738 13.061 19.711.487 1.17.095 2.503-.966 3.192z" fill="#448A9A"/><path d="M143.496 179.956c0 11.104-5.861 12.755-6.696 15.265-.567 1.703-2.365 4.29-11.39 7.09-4.892 1.519-10.405 2.578-13.409 2.578-3.003 0-8.516-1.059-13.408-2.578-9.025-2.8-10.823-5.387-11.39-7.09-.852-2.561-6.697-4.067-6.697-15.265 0-11.253 8.203-26.557 12.979-29.741 4.412-2.932 14.544-3.066 19.829-3.066 4.52 0 13.415.54 17.2 3.064 4.815 3.209 12.982 18.533 12.982 29.743z" fill="#7DBCCA"/><path d="M127.521 200.72a2.624 2.624 0 01-1.598 1.43c-4.964 1.588-10.818 2.739-13.922 2.739-3.103 0-8.958-1.151-13.922-2.739a2.622 2.622 0 01-1.597-1.43c-3.124-6.07-6.896-16.494-2.083-21.307 3.597-3.607 6.6-7.8 12.002-8.533a2.628 2.628 0 012.974 2.457c.121.41 1.161 1.37 2.626 1.37 1.465 0 2.505-.96 2.627-1.37a2.626 2.626 0 012.973-2.457c5.392.731 8.375 4.896 12.003 8.533 4.817 4.817 1.031 15.255-2.083 21.307z" fill="#448A9A"/><path d="M94.285 166.833a4.593 4.593 0 10-.002 9.186 4.592 4.592 0 10.002-9.186zm35.43 9.186a4.592 4.592 0 10.002-9.186 4.593 4.593 0 10-.002 9.186zm-11.59-2.254c0 2.665-3.033 4.861-6.125 4.861-3.135 0-6.125-2.23-6.125-4.861 0-1.88 1.609-3.889 6.125-3.889s6.125 2.009 6.125 3.889z" fill="#234A52"/><path fill-rule="evenodd" clip-rule="evenodd" d="M127.959 46.347c-2.781 0-4.93-.418-5.964-.667-.706-.17-1.274-.346-1.705-.527l1.378 2.355.54 7.357c0 .825 2.62 1.494 5.852 1.494s5.852-.669 5.852-1.494l.427-7.437 1.304-2.282c-.432.183-1.005.362-1.721.534-1.033.25-3.182.667-5.963.667zm7.729-23.942c-2.041.285-4.75.443-7.628.443s-5.587-.157-7.628-.442c-1.011-.142-1.811-.308-2.378-.495a3.462 3.462 0 01-.585-.243l1.265 11.64a11.27 11.27 0 011.349-2.906c.229-.348.474-.668.732-.96a5.84 5.84 0 01.798-.754 3.79 3.79 0 01.825-.494 2.1 2.1 0 01.826-.178c.314 0 .618.086.912.258.293.171.567.45.823.834a.67.67 0 01.111.26c.016.088.023.171.023.249 0 .184-.044.329-.132.435a.395.395 0 01-.313.16c-.11 0-.213-.059-.308-.175a3.271 3.271 0 01-.318-.5 1.222 1.222 0 00-.365-.426.77.77 0 00-.433-.132c-.241 0-.499.1-.774.3-.274.2-.546.465-.815.795a8.749 8.749 0 00-.774 1.128c-.247.423-.465.856-.655 1.3-.19.444-.341.881-.453 1.312a4.672 4.672 0 00-.168 1.162c0 .115.008.233.023.353.016.12.045.23.088.328a.661.661 0 00.176.242.417.417 0 00.282.095.949.949 0 00.435-.129c.162-.085.331-.198.505-.337s.349-.296.525-.472a8.486 8.486 0 00.896-1.052 3.12 3.12 0 00.264-.432l.482-1.441a.673.673 0 01.23-.331.51.51 0 01.293-.098c.048 0 .096.008.144.024a.36.36 0 01.221.212.52.52 0 01.033.193c0 .196-.017.38-.052.552-.034.172-.078.34-.132.503a8.676 8.676 0 01-.178.493c-.066.166-.13.339-.192.519-.014.02-.039.084-.075.193a36.666 36.666 0 00-.3.956 278.602 278.602 0 00-.37 1.24 61.661 61.661 0 00-.275.959l-.057.196a1.324 1.324 0 01-.082.218 1.52 1.52 0 01-.135.227.837.837 0 01-.171.177.315.315 0 01-.192.07c-.11 0-.19-.036-.24-.11-.05-.073-.075-.208-.075-.404v-.086c0-.029.001-.06.005-.092.003-.065.029-.188.078-.368a32.044 32.044 0 01.391-1.315c.077-.244.147-.461.209-.653-.183.204-.381.407-.595.61a6.411 6.411 0 01-.658.545c-.224.162-.45.294-.678.396a1.609 1.609 0 01-.658.154c-.241 0-.449-.054-.624-.16a1.357 1.357 0 01-.09-.063l.703 7.379c.184.46 3.633 1.587 8.18 1.587 4.55 0 8-1.129 8.18-1.588l1.011-8.772-.243.224c-.29.27-.564.502-.821.696a3.693 3.693 0 01-.753.45 1.95 1.95 0 01-.787.16c-.263 0-.466-.057-.609-.171a.572.572 0 01-.215-.472v-.046a1.103 1.103 0 01.166-.475c.093-.16.205-.326.337-.497.131-.172.27-.346.419-.522.148-.175.286-.342.412-.5.126-.157.23-.3.313-.432.083-.13.124-.237.124-.319a.143.143 0 00-.052-.116c-.034-.028-.091-.043-.171-.043a.973.973 0 00-.427.107 2.173 2.173 0 00-.435.289 3.87 3.87 0 00-.419.413 6.102 6.102 0 00-.709.99c-.099.17-.182.327-.251.47l-.088.19c-.038.082-.08.174-.125.276-.045.102-.092.208-.142.316a22.81 22.81 0 00-.248.564l-.07.157a3.402 3.402 0 00-.086.208l-.137.358-.163.433a88.251 88.251 0 00-.293.785 3.629 3.629 0 00-.072.208 2.252 2.252 0 01-.122.301 1.23 1.23 0 01-.16.248.752.752 0 01-.207.172.53.53 0 01-.262.064.51.51 0 01-.308-.089c-.081-.059-.122-.173-.122-.34 0-.082.011-.166.032-.251.02-.086.046-.171.077-.255a6.75 6.75 0 01.096-.245c.033-.08.063-.156.091-.23.186-.409.376-.819.569-1.23.193-.41.379-.817.557-1.22l.107-.25-.032.032a6.889 6.889 0 01-.671.574 3.532 3.532 0 01-.662.395c-.22.098-.433.147-.64.147a.822.822 0 01-.354-.067.592.592 0 01-.228-.184.732.732 0 01-.122-.276 1.308 1.308 0 01-.018-.112 5.031 5.031 0 01-.184.137 3.725 3.725 0 01-.631.364 1.404 1.404 0 01-.56.138.53.53 0 01-.404-.165c-.103-.11-.155-.299-.155-.564a3.1 3.1 0 01.083-.657c-.09.16-.202.321-.336.485a2.973 2.973 0 01-.461.448 2.294 2.294 0 01-.58.328 1.898 1.898 0 01-.699.125c-.114 0-.224-.014-.329-.043a.696.696 0 01-.277-.147.738.738 0 01-.191-.279 1.137 1.137 0 01-.073-.438l.021-.187c.014-.121.058-.311.132-.57.074-.26.189-.596.344-1.01.156-.412.375-.913.658-1.502a.823.823 0 01.251-.334.52.52 0 01.603-.012.32.32 0 01.15.279.44.44 0 01-.015.116 1.43 1.43 0 01-.112.273c-.057.113-.123.242-.199.387a38.46 38.46 0 00-.241.469 6.76 6.76 0 00-.235.521c-.073.18-.135.363-.187.549a2.364 2.364 0 00-.088.542c0 .074.017.142.052.203.035.061.092.092.171.092.224 0 .438-.074.642-.22.203-.148.392-.331.564-.55.173-.218.329-.454.469-.705a8.82 8.82 0 00.349-.69c.066-.139.124-.288.174-.447.05-.16.104-.307.163-.442.059-.135.126-.247.202-.337a.355.355 0 01.284-.135c.125 0 .223.047.296.14a.538.538 0 01.108.338.954.954 0 01-.07.304 7.812 7.812 0 01-.176.441c-.071.166-.147.343-.23.53-.083.189-.16.38-.23.574a5.78 5.78 0 00-.177.57 2.168 2.168 0 00-.069.518c0 .148.076.221.227.221.107 0 .24-.036.399-.11.159-.074.325-.177.5-.31l.131-.104c.048-.2.105-.386.172-.555.12-.32.243-.636.367-.95l.342-.865 1.568-3.955a.67.67 0 01.251-.338.604.604 0 01.319-.098c.107 0 .204.035.293.104.088.07.132.182.132.338a.7.7 0 01-.044.233 2.99 2.99 0 01-.112.263 96.352 96.352 0 00-1.11 2.634l-.42 1.033c-.136.336-.264.653-.383.954l-.308.782a3.41 3.41 0 00-.111.328 1.22 1.22 0 00-.054.334c0 .061.01.11.031.147.02.037.06.056.119.056a.666.666 0 00.271-.077c.109-.051.226-.119.352-.203.127-.083.258-.18.394-.288a11.997 11.997 0 001.121-1.008.234.234 0 01.08-.053c.058-.174.111-.345.158-.512.028-.073.066-.177.114-.313.048-.134.104-.267.166-.398.062-.13.132-.244.209-.34.078-.096.162-.145.251-.145.139 0 .239.032.301.095.062.064.093.157.093.28 0 .024-.004.063-.01.116l-.026.169c-.011.06-.022.115-.034.169a.678.678 0 01-.034.116c.128-.14.266-.277.414-.414.149-.137.302-.26.461-.371a2.7 2.7 0 01.487-.27c.166-.07.331-.104.497-.104.114 0 .227.016.339.049a.97.97 0 01.3.144c.088.064.16.143.215.24a.66.66 0 01.083.333c0 .168-.042.347-.127.537-.084.19-.19.381-.318.573-.128.193-.266.38-.414.561-.149.182-.288.348-.417.497l-.326.38c-.088.105-.134.175-.137.212a.16.16 0 00.046.12c.031.03.083.046.155.046.059 0 .146-.033.259-.098a4.36 4.36 0 00.479-.34c.205-.162.466-.379.782-.651.216-.186.47-.408.756-.661l1.369-12.681a3.44 3.44 0 01-.585.243c-.567.187-1.367.353-2.378.494zm-7.636-3.008c-5.92 0-10.719.662-10.719 1.478 0 .817 4.799 1.479 10.719 1.479 5.919 0 10.718-.662 10.718-1.479 0-.816-4.799-1.478-10.718-1.478zm4.28 1.91c0 .192-.571.347-1.274.347-.704 0-1.274-.155-1.274-.347 0-.191.57-.347 1.274-.347.703 0 1.274.156 1.274.347z" fill="#7DBCCA"/><path fill-rule="evenodd" clip-rule="evenodd" d="M130.044 21.154a.059.059 0 00-.009.03c0 .125.459.225 1.025.225.566 0 1.026-.1 1.026-.224l1.339-5.431 5.326-5.623.005-.006c.113-.127-.116-.522-.495-.86-.38-.339-.79-.453-.917-.325a.205.205 0 00-.003.003l-5.683 5.98-1.614 6.23z" fill="#7DBCCA"/><path d="M248.971 208.95a5.159 5.159 0 00-2.254.523c-.231-.459-.463-.868-.504-1.168-.045-.351-.1-.564-.045-.983.054-.418.299-1.013.295-1.059-.005-.045-.055-.259-.554-.263-.5-.005-.932.095-.982.227-.05.132-.145.432-.209.741-.086.454-.999 2.078-1.522 2.928-.168-.332-.313-.623-.345-.855-.045-.35-.1-.564-.045-.982.054-.418.299-1.014.295-1.059-.005-.046-.055-.259-.555-.264-.499-.005-.931.096-.981.227-.05.132-.104.441-.209.741-.104.3-1.318 3.01-1.636 3.71-.163.359-.304.646-.404.841 0 0-.004.014-.018.036-.086.169-.136.26-.136.26v.004c-.068.123-.141.237-.178.237-.027 0-.077-.328.01-.773.181-.941.613-2.405.608-2.455 0-.027.082-.282-.281-.414-.355-.132-.482.086-.514.086-.032 0-.054.078-.054.078s.395-1.646-.755-1.646c-.717 0-1.708.786-2.199 1.496-.308.168-.967.527-1.671.914-.269.15-.546.3-.805.44-.018-.018-.036-.04-.054-.059-1.39-1.486-3.962-2.536-3.853-4.532.041-.728.291-2.637 4.939-4.956 3.825-1.886 6.869-1.363 7.396-.204.755 1.655-1.631 4.728-5.583 5.173-1.509.169-2.299-.413-2.499-.631-.209-.228-.241-.241-.318-.196-.128.068-.046.273 0 .391.118.309.604.855 1.426 1.123.727.236 2.495.368 4.635-.459 2.394-.928 4.266-3.505 3.716-5.665-.55-2.191-4.184-2.914-7.624-1.691-2.044.727-4.262 1.873-5.856 3.364-1.895 1.773-2.195 3.314-2.072 3.96.441 2.291 3.598 3.782 4.861 4.887l-.172.096c-.632.313-3.04 1.573-3.64 2.905-.681 1.509.109 2.591.632 2.736 1.622.45 3.289-.359 4.184-1.695.896-1.337.786-3.074.373-3.869a.085.085 0 00-.018-.027l.495-.291c.323-.191.641-.369.913-.514-.154.423-.268.927-.322 1.655-.068.854.281 1.964.74 2.4.205.191.446.196.6.196.536 0 .777-.446 1.045-.973.327-.646.623-1.396.623-1.396s-.369 2.028.631 2.028c.364 0 .732-.473.895-.714v.004s.009-.013.027-.045l.059-.096v-.009c.146-.254.473-.832.959-1.791.627-1.236 1.231-2.782 1.231-2.782s.055.377.241 1.005c.109.368.336.772.518 1.164-.145.204-.236.318-.236.318l.004.004c-.118.155-.245.323-.386.487-.495.591-1.086 1.268-1.167 1.464-.096.231-.073.4.109.536.131.1.368.114.608.1a2.81 2.81 0 00.914-.209c.24-.086.522-.218.786-.414.486-.359.781-.873.754-1.55-.014-.373-.136-.746-.286-1.096.045-.063.086-.127.131-.191.768-1.123 1.363-2.355 1.363-2.355s.055.378.241 1.005c.091.318.277.664.441 1-.723.587-1.168 1.269-1.327 1.714-.286.828-.063 1.2.359 1.287.191.041.464-.05.663-.137.255-.081.555-.222.841-.431.486-.36.954-.86.927-1.537a2.93 2.93 0 00-.209-.909c.613-.255 1.404-.396 2.412-.278 2.163.255 2.59 1.605 2.508 2.173-.081.569-.536.878-.686.973-.15.096-.2.128-.186.196.018.1.091.095.218.077.177-.032 1.136-.459 1.177-1.505.068-1.336-1.204-2.796-3.453-2.782zm-16.684 5.628c-.717.782-1.717 1.078-2.149.828-.463-.269-.281-1.423.6-2.251.536-.504 1.227-.973 1.686-1.259.104-.064.259-.155.445-.268l.05-.028.109-.068c.323 1.182.014 2.223-.741 3.046zm5.225-3.555c-.25.609-.772 2.169-1.09 2.082-.273-.072-.441-1.255-.055-2.423.196-.586.609-1.286.85-1.559.391-.437.822-.582.927-.405.132.232-.477 1.923-.632 2.305zm4.312 2.064c-.104.055-.204.091-.25.064-.032-.018.046-.091.046-.091s.54-.582.754-.846c.123-.154.268-.336.422-.541v.059c0 .696-.672 1.164-.972 1.355zm3.326-.759c-.077-.055-.064-.237.195-.805.1-.223.336-.595.741-.954.045.145.077.286.072.418-.004.877-.631 1.204-1.008 1.341z" fill="#7DBCCA"/><path d="M76.991 121.637c1.774 0 3.213-1.45 3.213-3.236v-3.236h-3.213c-1.774 0-3.213 1.45-3.213 3.236 0 1.786 1.44 3.236 3.213 3.236z" fill="#448A9A"/><path d="M73.778 111.93c0-1.787 1.44-3.236 3.213-3.236h3.213v6.471h-3.213c-1.774 0-3.213-1.449-3.213-3.235z" fill="#7DBCCA"/><path d="M73.778 105.458c0-1.786 1.44-3.236 3.213-3.236h3.213v6.472h-3.213c-1.774 0-3.213-1.45-3.213-3.236z" fill="#448A9A"/><path d="M80.201 102.222h3.214c1.773 0 3.213 1.45 3.213 3.236 0 1.786-1.44 3.236-3.213 3.236H80.2v-6.472z" fill="#7DBCCA"/><path d="M86.628 111.93c0 1.786-1.44 3.235-3.213 3.235-1.774 0-3.214-1.449-3.214-3.235 0-1.787 1.44-3.236 3.214-3.236 1.773 0 3.213 1.449 3.213 3.236z" fill="#448A9A"/><path fill-rule="evenodd" clip-rule="evenodd" d="M31.82 145.816l12.852-3.461 2.967-32.133H16l2.966 32.133 12.853 3.461zm-10.042-29.06l.48 3.88H32.34l-9.736 4.055.305 3.793.007-.003v.003l13.662.043-.306 5.058-4.461 1.256v-.004l-.037.01-4.31-1.088-.261-3.139h-4.025l.523 6.061 8.11 2.397v-.004l.014.004 8.066-2.354 1.047-12.033h-9.15l9.484-4.055.392-3.88-.005.002v-.002H21.778z" fill="#7DBCCA"/></svg>